PathFileType	4	(X/Y/Z)	22_coords_data.trc
DataRate	CameraRate	NumFrames	NumMarkers	Units	OrigDataRate	OrigDataStartFrame	OrigNumFrames
30.0	30.0	4	21	m	30.0	1	63
Frame#	Time	THUMB_TIP	THUMB_IP	THUMB_MCP	THUMB_CMC	INDEX_TIP	INDEX_DIP	INDEX_PIP	INDEX_MCP	MIDDLE_TIP	MIDDLE_DIP	MIDDLE_PIP	MIDDLE_MCP	RING_TIP	RING_DIP	RING_PIP	RING_MCP	PINKY_TIP	PINKY_DIP	PINKY_PIP	PINKY_MCP	WRIST
X1	Y1	Z1	X2	Y2	Z2	X3	Y3	Z3	X4	Y4	Z4	X5	Y5	Z5	X6	Y6	Z6	X7	Y7	Z7	X8	Y8	Z8	X9	Y9	Z9	X10	Y10	Z10	X11	Y11	Z11	X12	Y12	Z12	X13	Y13	Z13	X14	Y14	Z14	X15	Y15	Z15	X16	Y16	Z16	X17	Y17	Z17	X18	Y18	Z18	X19	Y19	Z19	X20	Y20	Z20	X21	Y21	Z21
0	-2.749317978547796e-18	0.5457947561078318	-0.023802297226457103	-0.11947851487798486	0.5243584489586935	-0.020713537712800045	-0.1271560340394458	0.49617630956198366	-0.018746931561476776	-0.11409006758954293	0.4727535701351666	-0.02981035558584627	-0.07777387386552448	0.5542784932238051	0.06956431413597991	-0.16076776444020494	0.5451468436404605	0.05709400531315978	-0.15132825313132364	0.5314129375615555	0.04232657203840662	-0.13631783770430989	0.5099704335760754	0.02047560745702065	-0.10671394499244366	0.5287314900652411	-0.01714597775235238	-0.11831712949332643	0.5434797093366204	-0.00836809343620154	-0.1240997565135992	0.5521893357144021	0.01786978362163577	-0.11487339396613397	0.5201751535746603	0.024379869284957667	-0.08439620827618471	0.5414602676391881	-0.021944935238508934	-0.11067574760363871	0.5561733507198462	-0.01152899745363628	-0.11049291893161	0.56458092852731	0.007520486481084221	-0.09683240004570115	0.5328321703923319	0.009243377314167356	-0.07185703542245803	0.5966672876341583	0.023820023058431006	-0.08364392425176043	0.582543663091775	0.01441997497233899	-0.08137184904065042	0.5647095325872846	0.004184786020261733	-0.07712959548103288	0.5332178825457047	-0.011426131785744031	-0.06903894198994898	0.4622830810018609	-0.023011742144276925	-0.051989820119430985
1	0.03333333333333339	0.5455964325094567	-0.023680924403898962	-0.11929273675243068	0.5241836496219976	-0.02069909792574892	-0.12707742941616143	0.49605702214044645	-0.018249859376509192	-0.11397345837517661	0.4730856879421237	-0.0300013098111101	-0.0775851193387202	0.5548675348633789	0.06965834353645545	-0.16020919539886502	0.5455561071516299	0.05708090994668952	-0.1510929747859191	0.5317904911200333	0.04263570630461444	-0.13580069764974234	0.5100518474532957	0.02037753333501896	-0.10672078703113522	0.5288590746893513	-0.017959269980007353	-0.11862374796266115	0.543596372606518	-0.008980961591049552	-0.12411938519354199	0.5525419215823014	0.017105815768941712	-0.11469246891661919	0.5205474946507023	0.024001742886392452	-0.08427946585034218	0.5416754359890603	-0.022226679445000175	-0.11097615880514602	0.556427511641554	-0.01187639901762172	-0.11047820397011582	0.5647054199183089	0.007340922083403645	-0.09697447177261875	0.5328294432436922	0.00905990770826176	-0.07216141002158066	0.5971527057614204	0.023021161593088812	-0.08306031015645116	0.5829755958388202	0.013656409872683295	-0.08098402032656898	0.5648929890465969	0.0037656989144336794	-0.07698337196184091	0.533322814456951	-0.011587514745214855	-0.0687077234857118	0.462283081001861	-0.023011742144276925	-0.051989820119430985
2	0.06666666666666676	0.5454235940861748	-0.023599875245878865	-0.1191439996508335	0.5240277729654882	-0.020696665360451783	-0.12700467461757442	0.4959482908615811	-0.01787014737433118	-0.11387556646619965	0.4733256823175841	-0.030146762160350005	-0.07744217090579686	0.5553302097024176	0.06971279937041835	-0.1597603442965901	0.5458836448530691	0.057063373204379264	-0.15088597501100257	0.5320916723090197	0.0428643637839895	-0.1353882507321327	0.5101221778409628	0.020309067226154887	-0.1067135928613549	0.5289654183642284	-0.01857661031242186	-0.11884979028319642	0.5436906975938637	-0.00944455441055686	-0.12411967705754803	0.552809704296885	0.016526448330068	-0.11454051825331518	0.5208360282316058	0.023715060013133005	-0.08417349959914538	0.5418606127177854	-0.022437885241737787	-0.11118583277312766	0.556638357542462	-0.01213931032059029	-0.11043909822172754	0.564816157678221	0.00719591457901031	-0.0970431047154045	0.5328347250735281	0.008918418729545907	-0.07236635894123727	0.5975240379882913	0.022364543363495082	-0.08264507368549345	0.5833066237956969	0.013033293941810686	-0.08069753218233455	0.5650408153421983	0.0034135046935045987	-0.07687236351176935	0.5334082062379729	-0.011720288066696116	-0.06843258810299313	0.4622830810018609	-0.023011742144276925	-0.051989820119430985
3	0.10000000000000014	0.5452876859855857	-0.023557831491011927	-0.11903526570606449	0.5239023697391954	-0.02070581518938336	-0.12694312585006798	0.4958594750717996	-0.017597645883676405	-0.11379948319514124	0.4734887877223306	-0.030253865663190882	-0.07734043152885495	0.5556906900260896	0.06973312235328288	-0.159417873820896	0.5461452711395074	0.05703987880678929	-0.15071347570562818	0.5323286208345244	0.043021908509350004	-0.1350735742964146	0.5101834257001581	0.020266222016033064	-0.10669391329282399	0.5290551285625485	-0.019017869018819578	-0.11900245684150151	0.5437697798678531	-0.009773959687974898	-0.12410433661727238	0.5530071783133987	0.016114458883703886	-0.11441569358453613	0.521052828688128	0.023508357844839567	-0.08407763631023996	0.5420165864821788	-0.022589810019348067	-0.11131673983535328	0.55680997723389	-0.012329202529730798	-0.11038104543481617	0.5649147941354283	0.007081150027864136	-0.09704949880352065	0.532847762055879	0.00881363865465623	-0.0724847930090845	0.5978006151445389	0.021838800877219344	-0.08237744702764416	0.5835528085919277	0.012538963913365175	-0.08050313625162497	0.5651583188680032	0.003121359131148138	-0.07679321887216806	0.5334763745004634	-0.011826747463649367	-0.06820881666102441	0.462283081001861	-0.023011742144276925	-0.051989820119430985
